<svg width="118" height="33" viewBox="0 0 118 33" fill="none" xmlns="http://www.w3.org/2000/svg">
<g clip-path="url(#clip0_357_1183)">
<path d="M29.5845 4.78404V4H20.9732L18.6298 6.34338L13.4684 11.5048L11.8117 13.1614L10.4445 14.5287L8.78783 16.1859L10.4445 17.8426L12.1017 16.1859L13.4684 14.8187L15.125 13.1621L21.9437 6.34338H24.7118L16.5091 14.5461L14.8524 16.2028L13.4858 17.57L11.8285 19.2267L7.49919 23.556V5.53564L5.96355 4H0V29H5.3685L13.4852 20.8833L19.2591 26.6566L21.6025 29H29.5845V27.6215L28.6195 26.6566L27.2417 25.2788L18.1657 16.2028L27.2417 7.12679L29.5845 4.78404ZM5.15581 26.6566H2.34276C2.34276 19.8853 2.34276 13.1147 2.34276 6.34338C3.28023 6.34338 4.21833 6.34338 5.15581 6.34338V26.6566ZM25.3063 26.6566H22.5724L15.1425 19.2267L16.5091 17.8594L25.3063 26.6566Z" fill="white"/>
</g>
<path d="M50.3971 26H45.4771L42.3091 19.088L41.0131 20.048V26H36.6451V8.864H41.0131V16.52C41.1891 16.168 41.3971 15.816 41.6371 15.464C41.8931 15.112 42.1171 14.76 42.3091 14.408L45.7411 8.864H50.4691L45.4051 16.496L50.3971 26ZM56.2167 12.824V26H51.9207V12.824H56.2167ZM54.1047 7.592C54.7127 7.592 55.2407 7.72 55.6887 7.976C56.1367 8.232 56.3607 8.728 56.3607 9.464C56.3607 10.184 56.1367 10.68 55.6887 10.952C55.2407 11.208 54.7127 11.336 54.1047 11.336C53.4647 11.336 52.9207 11.208 52.4727 10.952C52.0247 10.68 51.8007 10.184 51.8007 9.464C51.8007 8.728 52.0247 8.232 52.4727 7.976C52.9207 7.72 53.4647 7.592 54.1047 7.592ZM68.4732 22.016C68.4732 22.88 68.2972 23.632 67.9452 24.272C67.5932 24.896 67.0332 25.384 66.2652 25.736C65.4972 26.072 64.4812 26.24 63.2172 26.24C62.3212 26.24 61.5212 26.184 60.8172 26.072C60.1292 25.96 59.4252 25.76 58.7052 25.472V22.208C59.4892 22.544 60.2812 22.808 61.0812 23C61.8972 23.192 62.5452 23.288 63.0252 23.288C63.5212 23.288 63.8732 23.208 64.0812 23.048C64.3052 22.888 64.4172 22.664 64.4172 22.376C64.4172 22.168 64.3452 21.984 64.2012 21.824C64.0572 21.664 63.7852 21.48 63.3852 21.272C63.0012 21.064 62.4572 20.8 61.7532 20.48C61.0652 20.144 60.4892 19.8 60.0252 19.448C59.5772 19.096 59.2412 18.672 59.0172 18.176C58.7932 17.68 58.6812 17.072 58.6812 16.352C58.6812 15.104 59.1532 14.168 60.0972 13.544C61.0412 12.904 62.2812 12.584 63.8172 12.584C64.6332 12.584 65.4012 12.672 66.1212 12.848C66.8572 13.024 67.6092 13.296 68.3772 13.664L67.2252 16.4C66.8092 16.208 66.3852 16.04 65.9532 15.896C65.5372 15.752 65.1452 15.64 64.7772 15.56C64.4092 15.48 64.0972 15.44 63.8412 15.44C63.4892 15.44 63.2172 15.504 63.0252 15.632C62.8492 15.744 62.7612 15.92 62.7612 16.16C62.7612 16.352 62.8252 16.52 62.9532 16.664C63.0812 16.808 63.3292 16.976 63.6972 17.168C64.0652 17.344 64.5932 17.584 65.2812 17.888C66.0012 18.192 66.5932 18.512 67.0572 18.848C67.5372 19.184 67.8892 19.6 68.1132 20.096C68.3532 20.592 68.4732 21.232 68.4732 22.016ZM80.1451 22.016C80.1451 22.88 79.9691 23.632 79.6171 24.272C79.2651 24.896 78.7051 25.384 77.9371 25.736C77.1691 26.072 76.1531 26.24 74.8891 26.24C73.9931 26.24 73.1931 26.184 72.4891 26.072C71.8011 25.96 71.0971 25.76 70.3771 25.472V22.208C71.1611 22.544 71.9531 22.808 72.7531 23C73.5691 23.192 74.2171 23.288 74.6971 23.288C75.1931 23.288 75.5451 23.208 75.7531 23.048C75.9771 22.888 76.0891 22.664 76.0891 22.376C76.0891 22.168 76.0171 21.984 75.8731 21.824C75.7291 21.664 75.4571 21.48 75.0571 21.272C74.6731 21.064 74.1291 20.8 73.4251 20.48C72.7371 20.144 72.1611 19.8 71.6971 19.448C71.2491 19.096 70.9131 18.672 70.6891 18.176C70.4651 17.68 70.3531 17.072 70.3531 16.352C70.3531 15.104 70.8251 14.168 71.7691 13.544C72.7131 12.904 73.9531 12.584 75.4891 12.584C76.3051 12.584 77.0731 12.672 77.7931 12.848C78.5291 13.024 79.2811 13.296 80.0491 13.664L78.8971 16.4C78.4811 16.208 78.0571 16.04 77.6251 15.896C77.2091 15.752 76.8171 15.64 76.4491 15.56C76.0811 15.48 75.7691 15.44 75.5131 15.44C75.1611 15.44 74.8891 15.504 74.6971 15.632C74.5211 15.744 74.4331 15.92 74.4331 16.16C74.4331 16.352 74.4971 16.52 74.6251 16.664C74.7531 16.808 75.0011 16.976 75.3691 17.168C75.7371 17.344 76.2651 17.584 76.9531 17.888C77.6731 18.192 78.2651 18.512 78.7291 18.848C79.2091 19.184 79.5611 19.6 79.7851 20.096C80.0251 20.592 80.1451 21.232 80.1451 22.016ZM88.6489 12.56C90.2329 12.56 91.4649 12.96 92.3449 13.76C93.2409 14.544 93.6889 15.712 93.6889 17.264V26H90.7129L89.8969 24.224H89.7769C89.4249 24.688 89.0649 25.072 88.6969 25.376C88.3289 25.68 87.9049 25.896 87.4249 26.024C86.9449 26.168 86.3609 26.24 85.6729 26.24C84.9689 26.24 84.3289 26.088 83.7529 25.784C83.1769 25.48 82.7209 25.016 82.3849 24.392C82.0489 23.768 81.8809 22.976 81.8809 22.016C81.8809 20.608 82.3449 19.568 83.2729 18.896C84.2009 18.208 85.5369 17.832 87.2809 17.768L89.3689 17.696V17.312C89.3689 16.672 89.2329 16.208 88.9609 15.92C88.6889 15.632 88.3209 15.488 87.8569 15.488C87.3609 15.488 86.8089 15.584 86.2009 15.776C85.5929 15.952 84.9849 16.176 84.3769 16.448L83.1529 13.76C83.8729 13.376 84.6889 13.08 85.6009 12.872C86.5129 12.664 87.5289 12.56 88.6489 12.56ZM88.4089 20.048C87.6249 20.08 87.0649 20.264 86.7289 20.6C86.4089 20.92 86.2489 21.36 86.2489 21.92C86.2489 22.416 86.3609 22.776 86.5849 23C86.8249 23.224 87.1289 23.336 87.4969 23.336C88.0249 23.336 88.4729 23.136 88.8409 22.736C89.2089 22.32 89.3929 21.76 89.3929 21.056V20L88.4089 20.048ZM117.211 26H112.195L109.051 20.048L105.931 26H101.035L106.387 17.192L101.347 8.864H106.171L109.099 14.624L111.883 8.864H116.827L111.739 17.48L117.211 26Z" fill="white"/>
<defs>
<clipPath id="clip0_357_1183">
<rect width="29.5845" height="25" fill="white" transform="translate(0 4)"/>
</clipPath>
</defs>
</svg>
